<svg id="visual" viewBox="0 0 540 960" width="540" height="960" xmlns="http://www.w3.org/2000/svg" xmlns:xlink="http://www.w3.org/1999/xlink" version="1.1"><path d="M302 0L322.5 20C343 40 384 80 399.8 120C415.7 160 406.3 200 354.2 240C302 280 207 320 183.3 360C159.7 400 207.3 440 246.8 480C286.3 520 317.7 560 336.2 600C354.7 640 360.3 680 322.2 720C284 760 202 800 175.7 840C149.3 880 178.7 920 193.3 940L208 960L0 960L0 940C0 920 0 880 0 840C0 800 0 760 0 720C0 680 0 640 0 600C0 560 0 520 0 480C0 440 0 400 0 360C0 320 0 280 0 240C0 200 0 160 0 120C0 80 0 40 0 20L0 0Z" fill="#60246c" stroke-linecap="round" stroke-linejoin="miter"></path></svg>